<svg id="SvgjsSvg1018" width="288" height="288" xmlns="http://www.w3.org/2000/svg" version="1.1" xmlns:xlink="http://www.w3.org/1999/xlink" xmlns:svgjs="http://svgjs.com/svgjs"><defs id="SvgjsDefs1019"></defs><g id="SvgjsG1020"><svg xmlns="http://www.w3.org/2000/svg" enable-background="new 0 0 24 24" viewBox="0 0 24 24" width="288" height="288"><path d="M14.404,16H5.75c-0.27,0-0.518-0.145-0.651-0.378c-0.134-0.234-0.131-0.521,0.006-0.753l3.846-6.5C9.086,8.14,9.331,8,9.596,8h8.654c0.27,0,0.518,0.145,0.651,0.378c0.134,0.234,0.131,0.521-0.006,0.753l-3.846,6.5C14.914,15.86,14.669,16,14.404,16z M7.065,14.5h6.911l2.958-5h-6.911L7.065,14.5z" fill="#ffffff" class="color000 svgShape"></path><path d="M12,24C5.383,24,0,18.617,0,12S5.383,0,12,0s12,5.383,12,12S18.617,24,12,24z M12,1.5C6.21,1.5,1.5,6.21,1.5,12S6.21,22.5,12,22.5S22.5,17.79,22.5,12S17.79,1.5,12,1.5z" fill="#ffffff" class="color000 svgShape"></path></svg></g></svg>