<svg id="SvgjsSvg1035" width="288" height="288" xmlns="http://www.w3.org/2000/svg" version="1.1" xmlns:xlink="http://www.w3.org/1999/xlink" xmlns:svgjs="http://svgjs.com/svgjs"><defs id="SvgjsDefs1036"></defs><g id="SvgjsG1037"><svg xmlns="http://www.w3.org/2000/svg" viewBox="0 0 32 32" width="288" height="288"><path d="M4 16a1 1 0 0 0-1 1v4a1 1 0 0 0 2 0v-4a1 1 0 0 0-1-1zm3-3a1 1 0 0 0-1 1v8a1 1 0 0 0 2 0v-8a1 1 0 0 0-1-1zm3-1a1 1 0 0 0-1 1v9a1 1 0 0 0 2 0v-9a1 1 0 0 0-1-1zm3-3a1 1 0 0 0-1 1v12a1 1 0 0 0 2 0V10a1 1 0 0 0-1-1zm13 6.11A8 8 0 0 0 18 8a3 3 0 0 0-3 3v11a1 1 0 0 0 2 0V11a1 1 0 0 1 1-1 6 6 0 0 1 6 6 1 1 0 0 0 1 1 2 2 0 0 1 0 4h-5a1 1 0 0 0 0 2h5a4 4 0 0 0 1-7.89z" data-name="soundcloud music sound audio" fill="#ffffff" class="color000 svgShape"></path></svg></g></svg>